<svg xmlns="http://www.w3.org/2000/svg" viewBox="0 0 1400 700"><rect width="1400" height="700" fill="#f5f5f5"/><rect x="70" y="70" width="1260" height="560" fill="#e8e8e8" stroke="#222"/><text x="100" y="125" font-family="Arial" font-size="28" fill="#222">UAVSAR PolInSAR forest-height workflow</text><g font-family="Arial" fill="#222"><rect x="100" y="190" width="240" height="110" fill="#fff" stroke="#555"/><text x="220" y="235" text-anchor="middle" font-size="22">UAVSAR</text><text x="220" y="268" text-anchor="middle" font-size="16">multi-baseline SAR</text><rect x="430" y="190" width="240" height="110" fill="#fff" stroke="#555"/><text x="550" y="235" text-anchor="middle" font-size="22">Kapok</text><text x="550" y="268" text-anchor="middle" font-size="16">PolInSAR processing</text><rect x="760" y="190" width="240" height="110" fill="#fff" stroke="#555"/><text x="880" y="235" text-anchor="middle" font-size="22">RVoG inversion</text><text x="880" y="268" text-anchor="middle" font-size="16">forest height</text><rect x="1090" y="190" width="200" height="110" fill="#fff" stroke="#555"/><text x="1190" y="235" text-anchor="middle" font-size="22">Height map</text><text x="1190" y="268" text-anchor="middle" font-size="16">case study output</text><path d="M340 245h90M670 245h90M1000 245h90" stroke="#222" stroke-width="4"/><path d="M415 235l15 10-15 10M745 235l15 10-15 10M1080 235l15 10-15 10" fill="none" stroke="#222" stroke-width="4"/><rect x="180" y="400" width="1040" height="150" fill="#fff" stroke="#555"/><text x="700" y="440" text-anchor="middle" font-size="21">Selected Pongara, Gabon subset</text><text x="700" y="475" text-anchor="middle" font-size="17">azimuth rows 15000–25000 · range columns 1000–5000 · tracks 0 and 1</text><text x="700" y="510" text-anchor="middle" font-size="17">default multi-looking window: 20 × 5 · HDF5 output · Jupyter Notebook</text></g></svg>